<svg xmlns="http://www.w3.org/2000/svg" viewBox="0 0 64 64" role="img" aria-label="고래">
  <!-- 고객 상담 단추의 기본 그림.
       app/static/images/support_whale.png 를 올려 두면 그쪽을 씁니다. -->
  <!-- 물줄기 -->
  <g fill="#bcd3ff">
    <circle cx="27" cy="9" r="2.1"/>
    <circle cx="32.5" cy="5.5" r="1.5"/>
    <circle cx="22.5" cy="6" r="1.2"/>
  </g>
  <!-- 꼬리 -->
  <path d="M47 28c4-5 9-8 13-7-2 3-2 7 0 10-4 1-9-1-13-3z" fill="#3b7bf7"/>
  <!-- 몸통 -->
  <path d="M8 38c0-11 9-19 21-19s21 7 21 17-9 18-21 18S8 49 8 38z" fill="#3b7bf7"/>
  <!-- 배 -->
  <path d="M13 44c4 6 11 10 18 10 5 0 9-1 12-4-3-5-10-8-17-8-5 0-10 1-13 2z" fill="#f2f6ff"/>
  <!-- 모자 -->
  <path d="M15 21c1-6 7-10 14-10s13 4 14 10z" fill="#d6e4ff"/>
  <rect x="13" y="20.5" width="32" height="5" rx="2.5" fill="#2b4fae"/>
  <rect x="13" y="22.6" width="32" height="1.6" fill="#f0d9a6"/>
  <path d="M10 26c0-2 2-3 5-3h9v5h-9c-3 0-5-1-5-2z" fill="#2b4fae"/>
  <circle cx="29" cy="16.5" r="4.2" fill="#2b4fae"/>
  <path d="M29 14v5m-1.8-3.6h3.6M27.6 19.2c.9.8 1.9.8 2.8 0" stroke="#fff"
        stroke-width="1.1" stroke-linecap="round" fill="none"/>
  <!-- 눈과 볼 -->
  <circle cx="20" cy="34" r="3" fill="#15203a"/>
  <circle cx="21" cy="33" r="1" fill="#fff"/>
  <ellipse cx="30" cy="38.5" rx="3.4" ry="2.4" fill="#f7b9c8"/>
  <!-- 지느러미 -->
  <path d="M30 50c4 3 9 4 13 2-2-3-6-5-10-5-1 1-2 2-3 3z" fill="#2f6ae0"/>
</svg>
